<?xml version="1.0" encoding="utf-8"?>
<!-- Generator: Adobe Illustrator 19.2.0, SVG Export Plug-In . SVG Version: 6.00 Build 0)  -->
<svg version="1.1" id="Layer_1" xmlns="http://www.w3.org/2000/svg" xmlns:xlink="http://www.w3.org/1999/xlink" x="0px" y="0px"
	 viewBox="0 0 94 93.8" style="enable-background:new 0 0 94 93.8;" xml:space="preserve">
<style type="text/css">
	.st0{clip-path:url(#SVGID_2_);fill:none;stroke:#FFFFFF;stroke-width:2;}
</style>
<g>
	<defs>
		<rect id="SVGID_1_" x="35.3" y="25.5" width="23.4" height="42.8"/>
	</defs>
	<clipPath id="SVGID_2_">
		<use xlink:href="#SVGID_1_"  style="overflow:visible;"/>
	</clipPath>
	<path class="st0" d="M36.3,40.6v13.6c0,0,0.2,3.8,4.7,3.8s11.6,0.2,11.6,0.2s5.1,0,5.1-4.5V40.4"/>
	<path class="st0" d="M44.6,26.5c0,0-3.3,0-3.3,3.3v21.4c0,0,0.4,2.2,2.2,2.2H50c0,0,2.7,0,2.7-2.7V30.1c0,0-0.2-3.6-3.6-3.6H44.6z"
		/>
	<polyline class="st0" points="46.8,60.8 46.8,67.3 56.6,67.3 37.4,67.3 	"/>
</g>
</svg>
