<?xml version="1.0" encoding="utf-8"?>
<!-- Generator: Adobe Illustrator 19.2.0, SVG Export Plug-In . SVG Version: 6.00 Build 0)  -->
<svg version="1.1" id="Layer_1" xmlns="http://www.w3.org/2000/svg" xmlns:xlink="http://www.w3.org/1999/xlink" x="0px" y="0px"
	 viewBox="0 0 94 93.8" style="enable-background:new 0 0 94 93.8;" xml:space="preserve">
<style type="text/css">
	.st0{clip-path:url(#SVGID_2_);fill:none;stroke:#FFFFFF;stroke-width:1.461;}
	.st1{fill:#FFFFFF;}
	.st2{font-family:'Gotham-Book';}
	.st3{font-size:22.7537px;}
</style>
<g>
	<defs>
		<rect id="SVGID_1_" x="25.6" y="21.3" width="42.7" height="51.1"/>
	</defs>
	<clipPath id="SVGID_2_">
		<use xlink:href="#SVGID_1_"  style="overflow:visible;"/>
	</clipPath>
	<path class="st0" d="M26.3,68.7c0,0,5.6-8.7,6.1-10.9c0.5-2.3-3.3-4.8-4.3-7.6c-1-2.8-5.6-17.6,7.1-25.2c0,0,17.6-9.9,27,7.4
		c0,0,2,5.6,0.5,8.4c0,0-1.3,2.5,2.3,4.8c0,0,4.6,3.8,1.8,5.1c0,0-4.3,0.3-3.1,2.5c1.3,2.3-1.5,1.8-1.8,2.3
		c-0.3,0.5,2.5,1.8,0.8,2.8c-1.8,1-0.8,3.1,0,3.8c0,0,0.3,2.3-3.8,1.8c0,0-7.1-0.8-8.9,3.8c-1.8,4.6-1.3,4.1-1.3,4.1"/>
	<circle class="st0" cx="45" cy="40.8" r="13.9"/>
</g>
<text transform="matrix(1 0 0 1 38.3418 49.1325)" class="st1 st2 st3">?</text>
</svg>
