<?xml version="1.0" encoding="utf-8"?>
<!-- Generator: Adobe Illustrator 19.2.0, SVG Export Plug-In . SVG Version: 6.00 Build 0)  -->
<svg version="1.1" id="Layer_1" xmlns="http://www.w3.org/2000/svg" xmlns:xlink="http://www.w3.org/1999/xlink" x="0px" y="0px"
	 viewBox="0 0 267 44" style="enable-background:new 0 0 267 44;" xml:space="preserve">
<style type="text/css">
	.st0{fill:#FEF200;}
	.st1{fill:#00ADEF;}
	.st2{fill:#D2232A;}
	.st3{fill:#A6A8AB;}
	.st4{fill:#231F20;}
</style>
<rect x="19" y="10.4" class="st0" width="16.2" height="15.7"/>
<rect x="15.6" y="13.2" class="st1" width="16.2" height="15.7"/>
<rect x="12" y="16.8" class="st2" width="16.2" height="15.7"/>
<g>
	<path class="st3" d="M44.5,31.1c-0.3,0-0.7,0-0.9-0.1s-0.5-0.2-0.7-0.3L42.5,31h-0.3l-0.1-2h0.3c0.1,0.2,0.2,0.4,0.3,0.6
		c0.1,0.2,0.3,0.4,0.4,0.6c0.2,0.2,0.3,0.3,0.5,0.4c0.2,0.1,0.4,0.2,0.7,0.2c0.4,0,0.6-0.1,0.8-0.3c0.2-0.2,0.3-0.4,0.3-0.7
		c0-0.2-0.1-0.4-0.2-0.5s-0.4-0.3-0.7-0.4c-0.2-0.1-0.4-0.1-0.6-0.2s-0.4-0.1-0.5-0.2c-0.4-0.1-0.6-0.4-0.8-0.6s-0.3-0.6-0.3-0.9
		c0-0.2,0-0.4,0.1-0.6c0.1-0.2,0.2-0.4,0.4-0.5c0.2-0.1,0.4-0.3,0.7-0.4s0.6-0.1,0.9-0.1c0.3,0,0.6,0,0.9,0.1s0.5,0.2,0.6,0.3
		l0.2-0.2h0.3l0,1.9h-0.3c-0.1-0.2-0.2-0.4-0.3-0.6c-0.1-0.2-0.2-0.4-0.3-0.5c-0.1-0.2-0.3-0.3-0.4-0.4c-0.2-0.1-0.4-0.1-0.6-0.1
		c-0.3,0-0.5,0.1-0.7,0.2c-0.2,0.2-0.3,0.4-0.3,0.6c0,0.2,0.1,0.4,0.2,0.5c0.2,0.1,0.4,0.3,0.7,0.4c0.2,0.1,0.4,0.1,0.6,0.2
		s0.4,0.1,0.5,0.2c0.4,0.1,0.7,0.3,0.9,0.6s0.3,0.6,0.3,1c0,0.2-0.1,0.5-0.2,0.7c-0.1,0.2-0.3,0.4-0.5,0.6c-0.2,0.2-0.4,0.3-0.7,0.4
		S44.9,31.1,44.5,31.1z"/>
	<path class="st3" d="M52.5,26c0.3,0.2,0.5,0.6,0.7,0.9s0.2,0.8,0.2,1.2c0,0.4-0.1,0.8-0.2,1.2s-0.3,0.7-0.6,0.9
		c-0.3,0.3-0.6,0.5-0.9,0.6s-0.8,0.2-1.3,0.2c-0.4,0-0.8-0.1-1.1-0.2s-0.7-0.3-0.9-0.6c-0.3-0.2-0.5-0.5-0.6-0.9s-0.2-0.7-0.2-1.2
		c0-0.5,0.1-0.9,0.2-1.2s0.4-0.7,0.6-0.9c0.3-0.3,0.6-0.5,1-0.6s0.8-0.2,1.2-0.2c0.4,0,0.8,0.1,1.2,0.2S52.2,25.8,52.5,26z M51.5,30
		c0.1-0.2,0.2-0.5,0.3-0.8c0.1-0.3,0.1-0.6,0.1-1c0-0.3,0-0.6-0.1-0.9c0-0.3-0.1-0.6-0.2-0.8c-0.1-0.2-0.3-0.4-0.4-0.6
		c-0.2-0.1-0.4-0.2-0.7-0.2c-0.5,0-0.8,0.2-1.1,0.7s-0.4,1.1-0.4,1.9c0,0.3,0,0.7,0.1,1c0.1,0.3,0.1,0.6,0.3,0.8
		c0.1,0.2,0.3,0.4,0.4,0.5s0.4,0.2,0.7,0.2c0.3,0,0.5-0.1,0.7-0.2C51.2,30.4,51.4,30.2,51.5,30z"/>
	<path class="st3" d="M56.8,31.1c-0.4,0-0.8-0.1-1.1-0.2s-0.7-0.3-0.9-0.6c-0.3-0.2-0.5-0.5-0.6-0.9s-0.2-0.8-0.2-1.2
		c0-0.4,0.1-0.8,0.2-1.2c0.1-0.4,0.4-0.7,0.6-1c0.3-0.3,0.6-0.5,1-0.6c0.4-0.1,0.8-0.2,1.2-0.2c0.3,0,0.6,0,0.8,0.1s0.5,0.2,0.6,0.3
		l0.2-0.2H59l0,2h-0.3c-0.2-0.6-0.4-1.1-0.7-1.4c-0.3-0.3-0.6-0.4-1-0.4c-0.5,0-0.9,0.2-1.1,0.6s-0.4,1-0.4,1.8c0,0.4,0,0.8,0.1,1.1
		c0.1,0.3,0.2,0.6,0.3,0.8c0.2,0.2,0.3,0.3,0.5,0.4c0.2,0.1,0.4,0.1,0.7,0.1c0.4,0,0.7-0.1,1-0.3c0.3-0.2,0.5-0.5,0.8-0.9l0.3,0.2
		c-0.1,0.2-0.2,0.4-0.4,0.6s-0.3,0.3-0.5,0.5c-0.2,0.1-0.4,0.3-0.7,0.3S57.2,31.1,56.8,31.1z"/>
	<path class="st3" d="M62.7,31h-3.1v-0.3c0.1,0,0.2,0,0.3,0s0.2,0,0.3,0c0.1,0,0.2-0.1,0.2-0.2s0.1-0.1,0.1-0.2v-3.9
		c0-0.1,0-0.2-0.1-0.2s-0.1-0.1-0.2-0.2c-0.1,0-0.2-0.1-0.3-0.1s-0.2,0-0.3-0.1v-0.3h3.1v0.3c-0.1,0-0.2,0-0.3,0s-0.2,0-0.3,0.1
		c-0.1,0-0.2,0.1-0.2,0.2s-0.1,0.2-0.1,0.2v3.9c0,0.1,0,0.2,0.1,0.2s0.1,0.1,0.2,0.2c0.1,0,0.1,0,0.3,0.1s0.2,0,0.3,0V31z"/>
	<path class="st3" d="M68.1,26.8h-0.3c-0.1-0.2-0.2-0.4-0.4-0.6c-0.2-0.2-0.4-0.3-0.6-0.4c-0.1,0-0.2,0-0.3,0s-0.3,0-0.3,0h-0.8v2.1
		H66c0.1,0,0.3,0,0.4-0.1s0.2-0.1,0.3-0.2c0.1-0.1,0.1-0.2,0.2-0.3s0.1-0.3,0.1-0.4h0.3v2.3H67c0-0.1-0.1-0.2-0.1-0.4
		s-0.1-0.3-0.2-0.3c-0.1-0.1-0.2-0.2-0.3-0.2s-0.3-0.1-0.4-0.1h-0.6v1.6c0,0.2,0,0.3,0,0.4s0.1,0.2,0.1,0.2c0.1,0,0.2,0.1,0.3,0.1
		s0.3,0,0.5,0c0.1,0,0.2,0,0.3,0s0.2,0,0.3,0c0.1,0,0.2,0,0.3-0.1s0.2-0.1,0.2-0.1c0.1-0.1,0.3-0.3,0.4-0.6s0.3-0.5,0.3-0.6h0.3
		L68.4,31h-5.2v-0.3c0.1,0,0.2,0,0.3,0s0.2,0,0.3-0.1c0.1,0,0.2-0.1,0.2-0.2s0.1-0.1,0.1-0.2v-3.9c0-0.1,0-0.2,0-0.2
		s-0.1-0.1-0.2-0.2c-0.1,0-0.2-0.1-0.3-0.1s-0.2,0-0.3-0.1v-0.3h4.9V26.8z"/>
	<path class="st3" d="M74.1,27h-0.3c-0.1-0.2-0.2-0.5-0.4-0.8c-0.2-0.3-0.3-0.4-0.5-0.4c-0.1,0-0.2,0-0.3,0s-0.2,0-0.3,0h-0.2v4.3
		c0,0.1,0,0.2,0.1,0.2s0.1,0.1,0.2,0.2c0.1,0,0.2,0,0.3,0.1s0.2,0,0.3,0.1V31h-3.1v-0.3c0.1,0,0.2,0,0.3,0s0.2,0,0.3-0.1
		c0.1,0,0.2-0.1,0.2-0.2s0.1-0.2,0.1-0.2v-4.4h-0.2c-0.1,0-0.2,0-0.3,0s-0.2,0-0.3,0c-0.2,0-0.3,0.2-0.5,0.4
		c-0.2,0.3-0.3,0.5-0.4,0.8h-0.3v-1.6h5.4V27z"/>
	<path class="st3" d="M80.3,25.7c-0.1,0-0.2,0-0.3,0.1s-0.2,0.1-0.2,0.1c-0.1,0.1-0.2,0.1-0.3,0.2c-0.1,0.1-0.2,0.2-0.3,0.3
		c-0.2,0.2-0.3,0.5-0.5,0.8s-0.4,0.6-0.6,1c-0.1,0.2-0.2,0.4-0.3,0.5c0,0.1,0,0.3,0,0.6v0.8c0,0.1,0,0.2,0.1,0.2s0.1,0.1,0.2,0.2
		c0,0,0.1,0,0.3,0.1s0.2,0,0.3,0.1V31h-3.1v-0.3c0.1,0,0.2,0,0.3,0s0.2,0,0.3-0.1c0.1,0,0.2-0.1,0.2-0.2s0.1-0.2,0.1-0.3v-1
		c0-0.1,0-0.2,0-0.2s0-0.1,0-0.2c0,0,0-0.1-0.1-0.2s-0.1-0.2-0.2-0.3c-0.2-0.4-0.4-0.7-0.6-1s-0.4-0.6-0.5-0.9
		c-0.1-0.1-0.2-0.3-0.3-0.3s-0.2-0.2-0.3-0.2c-0.1,0-0.2-0.1-0.3-0.1s-0.2,0-0.3,0v-0.3h3.2v0.3c-0.3,0-0.5,0-0.6,0.1
		c-0.1,0-0.2,0.1-0.2,0.1c0,0,0,0.1,0.1,0.2c0,0.1,0.1,0.2,0.2,0.4c0.1,0.2,0.2,0.4,0.4,0.7c0.2,0.3,0.4,0.6,0.6,1
		c0.5-0.8,0.8-1.3,1-1.6c0.2-0.3,0.3-0.5,0.3-0.6c0-0.1-0.1-0.2-0.2-0.2s-0.3-0.1-0.5-0.1v-0.3h2.1V25.7z"/>
	<path class="st3" d="M87.3,26.9H87c-0.1-0.2-0.2-0.4-0.4-0.7c-0.2-0.2-0.4-0.4-0.5-0.4c-0.1,0-0.2,0-0.3,0s-0.2,0-0.4,0h-0.9v2.2
		h0.6c0.2,0,0.3,0,0.4-0.1s0.2-0.1,0.3-0.2c0.1-0.1,0.1-0.2,0.2-0.3s0.1-0.3,0.1-0.4h0.3v2.3h-0.3c0-0.1-0.1-0.3-0.1-0.4
		s-0.1-0.3-0.2-0.3c-0.1-0.1-0.2-0.1-0.3-0.2s-0.3-0.1-0.4-0.1h-0.6v1.8c0,0.1,0,0.2,0.1,0.2s0.1,0.1,0.2,0.2c0.1,0,0.1,0,0.2,0.1
		s0.2,0,0.3,0V31h-3v-0.3c0.1,0,0.2,0,0.3,0s0.2,0,0.3-0.1c0.1,0,0.2-0.1,0.2-0.2s0.1-0.1,0.1-0.2v-3.9c0-0.1,0-0.2,0-0.2
		s-0.1-0.1-0.2-0.2c-0.1,0-0.2-0.1-0.3-0.1s-0.2,0-0.3-0.1v-0.3h5V26.9z"/>
	<path class="st3" d="M92.8,26c0.3,0.2,0.5,0.6,0.7,0.9s0.2,0.8,0.2,1.2c0,0.4-0.1,0.8-0.2,1.2s-0.3,0.7-0.6,0.9
		c-0.3,0.3-0.6,0.5-0.9,0.6s-0.8,0.2-1.3,0.2c-0.4,0-0.8-0.1-1.1-0.2s-0.7-0.3-0.9-0.6c-0.3-0.2-0.5-0.5-0.6-0.9s-0.2-0.7-0.2-1.2
		c0-0.5,0.1-0.9,0.2-1.2s0.4-0.7,0.6-0.9c0.3-0.3,0.6-0.5,1-0.6s0.8-0.2,1.2-0.2c0.4,0,0.8,0.1,1.2,0.2S92.6,25.8,92.8,26z M91.8,30
		c0.1-0.2,0.2-0.5,0.3-0.8c0.1-0.3,0.1-0.6,0.1-1c0-0.3,0-0.6-0.1-0.9c0-0.3-0.1-0.6-0.2-0.8c-0.1-0.2-0.3-0.4-0.4-0.6
		c-0.2-0.1-0.4-0.2-0.7-0.2c-0.5,0-0.8,0.2-1.1,0.7s-0.4,1.1-0.4,1.9c0,0.3,0,0.7,0.1,1c0.1,0.3,0.1,0.6,0.3,0.8
		c0.1,0.2,0.3,0.4,0.4,0.5s0.4,0.2,0.7,0.2c0.3,0,0.5-0.1,0.7-0.2C91.6,30.4,91.7,30.2,91.8,30z"/>
	<path class="st3" d="M100.6,31h-2.1c-0.4-0.6-0.7-1-0.9-1.3s-0.5-0.7-0.9-1.2h-0.2v1.7c0,0.1,0,0.2,0.1,0.2s0.1,0.1,0.2,0.2
		c0,0,0.1,0,0.2,0.1s0.2,0,0.3,0V31h-3v-0.3c0.1,0,0.2,0,0.3,0s0.2,0,0.3-0.1c0.1,0,0.2-0.1,0.2-0.2s0.1-0.1,0.1-0.2v-3.9
		c0-0.1,0-0.2,0-0.2s-0.1-0.1-0.2-0.2c-0.1,0-0.2-0.1-0.3-0.1s-0.2,0-0.3-0.1v-0.3h3.1c0.7,0,1.2,0.1,1.6,0.3s0.5,0.5,0.5,1
		c0,0.4-0.1,0.7-0.3,0.9s-0.6,0.4-1,0.6c0.2,0.2,0.4,0.5,0.6,0.8s0.5,0.6,0.7,0.9c0.1,0.1,0.2,0.2,0.3,0.4s0.3,0.2,0.4,0.3
		c0.1,0,0.1,0,0.2,0s0.2,0,0.2,0V31z M98,26.8c0-0.4-0.1-0.6-0.3-0.8s-0.5-0.3-0.9-0.3h-0.3v2.3h0.3c0.4,0,0.7-0.1,0.9-0.3
		S98,27.3,98,26.8z"/>
	<path class="st3" d="M105.6,31.1c-0.4,0-0.8-0.1-1.1-0.2s-0.7-0.3-0.9-0.6c-0.3-0.2-0.5-0.5-0.6-0.9s-0.2-0.8-0.2-1.2
		c0-0.4,0.1-0.8,0.2-1.2c0.1-0.4,0.4-0.7,0.6-1c0.3-0.3,0.6-0.5,1-0.6c0.4-0.1,0.8-0.2,1.2-0.2c0.3,0,0.6,0,0.8,0.1s0.5,0.2,0.6,0.3
		l0.2-0.2h0.3l0,2h-0.3c-0.2-0.6-0.4-1.1-0.7-1.4c-0.3-0.3-0.6-0.4-1-0.4c-0.5,0-0.9,0.2-1.1,0.6s-0.4,1-0.4,1.8
		c0,0.4,0,0.8,0.1,1.1c0.1,0.3,0.2,0.6,0.3,0.8c0.2,0.2,0.3,0.3,0.5,0.4c0.2,0.1,0.4,0.1,0.7,0.1c0.4,0,0.7-0.1,1-0.3
		c0.3-0.2,0.5-0.5,0.8-0.9l0.3,0.2c-0.1,0.2-0.2,0.4-0.4,0.6s-0.3,0.3-0.5,0.5c-0.2,0.1-0.4,0.3-0.7,0.3S105.9,31.1,105.6,31.1z"/>
	<path class="st3" d="M114.4,31h-3v-0.3c0.1,0,0.3,0,0.5-0.1c0.2,0,0.3-0.1,0.3-0.2c0,0,0,0,0-0.1s0-0.1,0-0.1l-0.5-1.1h-1.9
		c0,0.1-0.1,0.2-0.1,0.4s-0.1,0.3-0.1,0.4c0,0.1-0.1,0.3-0.1,0.3c0,0.1,0,0.1,0,0.1c0,0.1,0.1,0.2,0.2,0.2c0.1,0.1,0.3,0.1,0.6,0.1
		V31h-2.3v-0.3c0.1,0,0.2,0,0.3,0s0.2-0.1,0.3-0.1c0.1-0.1,0.2-0.1,0.3-0.2s0.1-0.2,0.2-0.3c0.3-0.7,0.6-1.5,0.9-2.2s0.6-1.5,1-2.4
		h0.8c0.5,1.3,0.9,2.2,1.2,3s0.5,1.3,0.7,1.8c0,0.1,0.1,0.1,0.1,0.2s0.1,0.1,0.2,0.2c0.1,0,0.2,0.1,0.3,0.1s0.2,0,0.3,0V31z
		 M111.5,28.7l-0.8-2l-0.8,2H111.5z"/>
	<path class="st3" d="M116.8,31.1c-0.3,0-0.7,0-0.9-0.1s-0.5-0.2-0.7-0.3l-0.3,0.3h-0.3l-0.1-2h0.3c0.1,0.2,0.2,0.4,0.3,0.6
		c0.1,0.2,0.3,0.4,0.4,0.6c0.2,0.2,0.3,0.3,0.5,0.4c0.2,0.1,0.4,0.2,0.7,0.2c0.4,0,0.6-0.1,0.8-0.3c0.2-0.2,0.3-0.4,0.3-0.7
		c0-0.2-0.1-0.4-0.2-0.5s-0.4-0.3-0.7-0.4c-0.2-0.1-0.4-0.1-0.6-0.2s-0.4-0.1-0.5-0.2c-0.4-0.1-0.6-0.4-0.8-0.6s-0.3-0.6-0.3-0.9
		c0-0.2,0-0.4,0.1-0.6c0.1-0.2,0.2-0.4,0.4-0.5c0.2-0.1,0.4-0.3,0.7-0.4s0.6-0.1,0.9-0.1c0.3,0,0.6,0,0.9,0.1s0.5,0.2,0.6,0.3
		l0.2-0.2h0.3l0,1.9h-0.3c-0.1-0.2-0.2-0.4-0.3-0.6c-0.1-0.2-0.2-0.4-0.3-0.5c-0.1-0.2-0.3-0.3-0.4-0.4c-0.2-0.1-0.4-0.1-0.6-0.1
		c-0.3,0-0.5,0.1-0.7,0.2c-0.2,0.2-0.3,0.4-0.3,0.6c0,0.2,0.1,0.4,0.2,0.5c0.2,0.1,0.4,0.3,0.7,0.4c0.2,0.1,0.4,0.1,0.6,0.2
		s0.4,0.1,0.5,0.2c0.4,0.1,0.7,0.3,0.9,0.6s0.3,0.6,0.3,1c0,0.2-0.1,0.5-0.2,0.7c-0.1,0.2-0.3,0.4-0.5,0.6c-0.2,0.2-0.4,0.3-0.7,0.4
		S117.2,31.1,116.8,31.1z"/>
	<path class="st3" d="M124.6,26.8h-0.3c-0.1-0.2-0.2-0.4-0.4-0.6c-0.2-0.2-0.4-0.3-0.6-0.4c-0.1,0-0.2,0-0.3,0s-0.3,0-0.3,0h-0.8
		v2.1h0.6c0.1,0,0.3,0,0.4-0.1s0.2-0.1,0.3-0.2c0.1-0.1,0.1-0.2,0.2-0.3s0.1-0.3,0.1-0.4h0.3v2.3h-0.3c0-0.1-0.1-0.2-0.1-0.4
		s-0.1-0.3-0.2-0.3c-0.1-0.1-0.2-0.2-0.3-0.2s-0.3-0.1-0.4-0.1h-0.6v1.6c0,0.2,0,0.3,0,0.4s0.1,0.2,0.1,0.2c0.1,0,0.2,0.1,0.3,0.1
		s0.3,0,0.5,0c0.1,0,0.2,0,0.3,0s0.2,0,0.3,0c0.1,0,0.2,0,0.3-0.1s0.2-0.1,0.2-0.1c0.1-0.1,0.3-0.3,0.4-0.6s0.3-0.5,0.3-0.6h0.3
		l-0.1,1.7h-5.2v-0.3c0.1,0,0.2,0,0.3,0s0.2,0,0.3-0.1c0.1,0,0.2-0.1,0.2-0.2s0.1-0.1,0.1-0.2v-3.9c0-0.1,0-0.2,0-0.2
		s-0.1-0.1-0.2-0.2c-0.1,0-0.2-0.1-0.3-0.1s-0.2,0-0.3-0.1v-0.3h4.9V26.8z"/>
	<path class="st3" d="M133.8,31h-2.1c-0.4-0.6-0.7-1-0.9-1.3s-0.5-0.7-0.9-1.2h-0.2v1.7c0,0.1,0,0.2,0.1,0.2s0.1,0.1,0.2,0.2
		c0,0,0.1,0,0.2,0.1s0.2,0,0.3,0V31h-3v-0.3c0.1,0,0.2,0,0.3,0s0.2,0,0.3-0.1c0.1,0,0.2-0.1,0.2-0.2s0.1-0.1,0.1-0.2v-3.9
		c0-0.1,0-0.2,0-0.2s-0.1-0.1-0.2-0.2c-0.1,0-0.2-0.1-0.3-0.1s-0.2,0-0.3-0.1v-0.3h3.1c0.7,0,1.2,0.1,1.6,0.3s0.5,0.5,0.5,1
		c0,0.4-0.1,0.7-0.3,0.9s-0.6,0.4-1,0.6c0.2,0.2,0.4,0.5,0.6,0.8s0.5,0.6,0.7,0.9c0.1,0.1,0.2,0.2,0.3,0.4s0.3,0.2,0.4,0.3
		c0.1,0,0.1,0,0.2,0s0.2,0,0.2,0V31z M131.2,26.8c0-0.4-0.1-0.6-0.3-0.8s-0.5-0.3-0.9-0.3h-0.3v2.3h0.3c0.4,0,0.7-0.1,0.9-0.3
		S131.2,27.3,131.2,26.8z"/>
	<path class="st3" d="M138.8,26.8h-0.3c-0.1-0.2-0.2-0.4-0.4-0.6c-0.2-0.2-0.4-0.3-0.6-0.4c-0.1,0-0.2,0-0.3,0c-0.1,0-0.3,0-0.3,0
		H136v2.1h0.6c0.1,0,0.3,0,0.4-0.1s0.2-0.1,0.3-0.2c0.1-0.1,0.1-0.2,0.2-0.3c0.1-0.2,0.1-0.3,0.1-0.4h0.3v2.3h-0.3
		c0-0.1-0.1-0.2-0.1-0.4c-0.1-0.2-0.1-0.3-0.2-0.3c-0.1-0.1-0.2-0.2-0.3-0.2s-0.3-0.1-0.4-0.1H136v1.6c0,0.2,0,0.3,0,0.4
		c0,0.1,0.1,0.2,0.1,0.2c0.1,0,0.2,0.1,0.3,0.1s0.3,0,0.5,0c0.1,0,0.2,0,0.3,0c0.1,0,0.2,0,0.3,0c0.1,0,0.2,0,0.3-0.1
		c0.1,0,0.2-0.1,0.2-0.1c0.1-0.1,0.3-0.3,0.4-0.6s0.3-0.5,0.3-0.6h0.3L139,31h-5.2v-0.3c0.1,0,0.2,0,0.3,0s0.2,0,0.3-0.1
		c0.1,0,0.2-0.1,0.2-0.2c0-0.1,0.1-0.1,0.1-0.2v-3.9c0-0.1,0-0.2,0-0.2c0-0.1-0.1-0.1-0.2-0.2c-0.1,0-0.2-0.1-0.3-0.1
		c-0.1,0-0.2,0-0.3-0.1v-0.3h4.9V26.8z"/>
	<path class="st3" d="M141.9,31.1c-0.3,0-0.7,0-0.9-0.1s-0.5-0.2-0.7-0.3L140,31h-0.3l-0.1-2h0.3c0.1,0.2,0.2,0.4,0.3,0.6
		c0.1,0.2,0.3,0.4,0.4,0.6c0.2,0.2,0.3,0.3,0.5,0.4c0.2,0.1,0.4,0.2,0.7,0.2c0.4,0,0.6-0.1,0.8-0.3c0.2-0.2,0.3-0.4,0.3-0.7
		c0-0.2-0.1-0.4-0.2-0.5s-0.4-0.3-0.7-0.4c-0.2-0.1-0.4-0.1-0.6-0.2s-0.4-0.1-0.5-0.2c-0.4-0.1-0.6-0.4-0.8-0.6
		c-0.2-0.3-0.3-0.6-0.3-0.9c0-0.2,0-0.4,0.1-0.6c0.1-0.2,0.2-0.4,0.4-0.5c0.2-0.1,0.4-0.3,0.7-0.4c0.3-0.1,0.6-0.1,0.9-0.1
		c0.3,0,0.6,0,0.9,0.1c0.3,0.1,0.5,0.2,0.6,0.3l0.2-0.2h0.3l0,1.9h-0.3c-0.1-0.2-0.2-0.4-0.3-0.6c-0.1-0.2-0.2-0.4-0.3-0.5
		c-0.1-0.2-0.3-0.3-0.4-0.4c-0.2-0.1-0.4-0.1-0.6-0.1c-0.3,0-0.5,0.1-0.7,0.2c-0.2,0.2-0.3,0.4-0.3,0.6c0,0.2,0.1,0.4,0.2,0.5
		c0.2,0.1,0.4,0.3,0.7,0.4c0.2,0.1,0.4,0.1,0.6,0.2c0.2,0.1,0.4,0.1,0.5,0.2c0.4,0.1,0.7,0.3,0.9,0.6c0.2,0.3,0.3,0.6,0.3,1
		c0,0.2-0.1,0.5-0.2,0.7c-0.1,0.2-0.3,0.4-0.5,0.6c-0.2,0.2-0.4,0.3-0.7,0.4S142.3,31.1,141.9,31.1z"/>
	<path class="st3" d="M149.7,26.8h-0.3c-0.1-0.2-0.2-0.4-0.4-0.6c-0.2-0.2-0.4-0.3-0.6-0.4c-0.1,0-0.2,0-0.3,0c-0.1,0-0.3,0-0.3,0
		H147v2.1h0.6c0.1,0,0.3,0,0.4-0.1s0.2-0.1,0.3-0.2c0.1-0.1,0.1-0.2,0.2-0.3c0.1-0.2,0.1-0.3,0.1-0.4h0.3v2.3h-0.3
		c0-0.1-0.1-0.2-0.1-0.4c-0.1-0.2-0.1-0.3-0.2-0.3c-0.1-0.1-0.2-0.2-0.3-0.2s-0.3-0.1-0.4-0.1H147v1.6c0,0.2,0,0.3,0,0.4
		c0,0.1,0.1,0.2,0.1,0.2c0.1,0,0.2,0.1,0.3,0.1s0.3,0,0.5,0c0.1,0,0.2,0,0.3,0c0.1,0,0.2,0,0.3,0c0.1,0,0.2,0,0.3-0.1
		c0.1,0,0.2-0.1,0.2-0.1c0.1-0.1,0.3-0.3,0.4-0.6s0.3-0.5,0.3-0.6h0.3L150,31h-5.2v-0.3c0.1,0,0.2,0,0.3,0s0.2,0,0.3-0.1
		c0.1,0,0.2-0.1,0.2-0.2c0-0.1,0.1-0.1,0.1-0.2v-3.9c0-0.1,0-0.2,0-0.2c0-0.1-0.1-0.1-0.2-0.2c-0.1,0-0.2-0.1-0.3-0.1
		c-0.1,0-0.2,0-0.3-0.1v-0.3h4.9V26.8z"/>
	<path class="st3" d="M156.6,31h-3v-0.3c0.1,0,0.3,0,0.5-0.1s0.3-0.1,0.3-0.2c0,0,0,0,0-0.1s0-0.1,0-0.1l-0.5-1.1h-1.9
		c0,0.1-0.1,0.2-0.1,0.4s-0.1,0.3-0.1,0.4c0,0.1-0.1,0.3-0.1,0.3c0,0.1,0,0.1,0,0.1c0,0.1,0.1,0.2,0.2,0.2c0.1,0.1,0.3,0.1,0.6,0.1
		V31h-2.3v-0.3c0.1,0,0.2,0,0.3,0c0.1,0,0.2-0.1,0.3-0.1c0.1-0.1,0.2-0.1,0.3-0.2s0.1-0.2,0.2-0.3c0.3-0.7,0.6-1.5,0.9-2.2
		c0.3-0.7,0.6-1.5,1-2.4h0.8c0.5,1.3,0.9,2.2,1.2,3s0.5,1.3,0.7,1.8c0,0.1,0.1,0.1,0.1,0.2c0.1,0.1,0.1,0.1,0.2,0.2
		c0.1,0,0.2,0.1,0.3,0.1c0.1,0,0.2,0,0.3,0V31z M153.7,28.7l-0.8-2l-0.8,2H153.7z"/>
	<path class="st3" d="M163,31h-2.1c-0.4-0.6-0.7-1-0.9-1.3s-0.5-0.7-0.9-1.2h-0.2v1.7c0,0.1,0,0.2,0.1,0.2s0.1,0.1,0.2,0.2
		c0,0,0.1,0,0.2,0.1s0.2,0,0.3,0V31h-3v-0.3c0.1,0,0.2,0,0.3,0c0.1,0,0.2,0,0.3-0.1c0.1,0,0.2-0.1,0.2-0.2c0-0.1,0.1-0.1,0.1-0.2
		v-3.9c0-0.1,0-0.2,0-0.2c0-0.1-0.1-0.1-0.2-0.2c-0.1,0-0.2-0.1-0.3-0.1s-0.2,0-0.3-0.1v-0.3h3.1c0.7,0,1.2,0.1,1.6,0.3
		c0.4,0.2,0.5,0.5,0.5,1c0,0.4-0.1,0.7-0.3,0.9s-0.6,0.4-1,0.6c0.2,0.2,0.4,0.5,0.6,0.8c0.2,0.3,0.5,0.6,0.7,0.9
		c0.1,0.1,0.2,0.2,0.3,0.4c0.1,0.1,0.3,0.2,0.4,0.3c0.1,0,0.1,0,0.2,0c0.1,0,0.2,0,0.2,0V31z M160.3,26.8c0-0.4-0.1-0.6-0.3-0.8
		s-0.5-0.3-0.9-0.3h-0.3v2.3h0.3c0.4,0,0.7-0.1,0.9-0.3S160.3,27.3,160.3,26.8z"/>
	<path class="st3" d="M165.9,31.1c-0.4,0-0.8-0.1-1.1-0.2c-0.4-0.1-0.7-0.3-0.9-0.6c-0.3-0.2-0.5-0.5-0.6-0.9s-0.2-0.8-0.2-1.2
		c0-0.4,0.1-0.8,0.2-1.2c0.1-0.4,0.4-0.7,0.6-1c0.3-0.3,0.6-0.5,1-0.6c0.4-0.1,0.8-0.2,1.2-0.2c0.3,0,0.6,0,0.8,0.1
		c0.3,0.1,0.5,0.2,0.6,0.3l0.2-0.2h0.3l0,2h-0.3c-0.2-0.6-0.4-1.1-0.7-1.4s-0.6-0.4-1-0.4c-0.5,0-0.9,0.2-1.1,0.6s-0.4,1-0.4,1.8
		c0,0.4,0,0.8,0.1,1.1c0.1,0.3,0.2,0.6,0.3,0.8c0.2,0.2,0.3,0.3,0.5,0.4s0.4,0.1,0.7,0.1c0.4,0,0.7-0.1,1-0.3s0.5-0.5,0.8-0.9
		l0.3,0.2c-0.1,0.2-0.2,0.4-0.4,0.6c-0.1,0.2-0.3,0.3-0.5,0.5c-0.2,0.1-0.4,0.3-0.7,0.3C166.6,31.1,166.3,31.1,165.9,31.1z"/>
	<path class="st3" d="M175.5,31h-3v-0.3c0.1,0,0.2,0,0.3,0s0.2,0,0.3,0c0.1,0,0.2-0.1,0.2-0.2c0-0.1,0.1-0.1,0.1-0.2v-1.9h-2.4v1.9
		c0,0.1,0,0.2,0.1,0.2c0,0.1,0.1,0.1,0.2,0.2c0,0,0.1,0,0.3,0.1c0.1,0,0.2,0,0.3,0V31h-3v-0.3c0.1,0,0.2,0,0.3,0
		c0.1,0,0.2,0,0.3-0.1c0.1,0,0.2-0.1,0.2-0.2c0-0.1,0.1-0.2,0.1-0.2v-3.9c0-0.1,0-0.2,0-0.2c0-0.1-0.1-0.1-0.2-0.2
		c-0.1,0-0.2-0.1-0.3-0.1c-0.1,0-0.2,0-0.3,0v-0.3h3v0.3c-0.1,0-0.2,0-0.3,0c-0.1,0-0.2,0-0.3,0.1c-0.1,0-0.2,0.1-0.2,0.2
		c0,0.1,0,0.2,0,0.2v1.7h2.4v-1.6c0-0.1,0-0.2-0.1-0.2c0-0.1-0.1-0.1-0.2-0.2c-0.1,0-0.2-0.1-0.3-0.1s-0.2,0-0.3-0.1v-0.3h3v0.3
		c-0.1,0-0.2,0-0.3,0c-0.1,0-0.2,0-0.3,0.1c-0.1,0-0.2,0.1-0.2,0.2c0,0.1-0.1,0.2-0.1,0.2v3.9c0,0.1,0,0.2,0.1,0.2
		c0,0.1,0.1,0.1,0.2,0.2c0.1,0,0.2,0,0.3,0.1c0.1,0,0.2,0,0.3,0V31z"/>
</g>
<g>
	<path class="st4" d="M47.7,18.2c0,0.5-0.1,0.9-0.2,1.3c-0.1,0.4-0.3,0.7-0.6,0.9S46.3,20.8,46,21c-0.3,0.1-0.7,0.2-1.1,0.2
		c-0.6,0-1.2-0.1-1.6-0.4c-0.4-0.3-0.8-0.6-1.1-1l1-1c0.2,0.3,0.5,0.6,0.8,0.7c0.3,0.2,0.6,0.3,0.9,0.3c0.4,0,0.7-0.1,1-0.4
		c0.2-0.3,0.4-0.7,0.4-1.2v-5.5h1.5V18.2z"/>
	<path class="st4" d="M57.9,16.8c0,0.6-0.1,1.2-0.3,1.7c-0.2,0.5-0.5,1-0.9,1.4c-0.4,0.4-0.9,0.7-1.4,0.9c-0.5,0.2-1.1,0.3-1.8,0.3
		s-1.2-0.1-1.8-0.3c-0.5-0.2-1-0.5-1.4-0.9c-0.4-0.4-0.7-0.9-0.9-1.4c-0.2-0.5-0.3-1.1-0.3-1.7c0-0.6,0.1-1.2,0.3-1.7
		c0.2-0.5,0.5-1,0.9-1.4c0.4-0.4,0.9-0.7,1.4-0.9c0.5-0.2,1.1-0.3,1.8-0.3s1.2,0.1,1.8,0.3c0.5,0.2,1,0.5,1.4,0.9
		c0.4,0.4,0.7,0.9,0.9,1.4C57.8,15.7,57.9,16.2,57.9,16.8z M56.3,16.8c0-0.4-0.1-0.8-0.2-1.2s-0.3-0.7-0.6-1
		c-0.3-0.3-0.6-0.5-0.9-0.6c-0.4-0.2-0.7-0.2-1.2-0.2s-0.8,0.1-1.1,0.2c-0.3,0.2-0.6,0.4-0.9,0.6c-0.2,0.3-0.4,0.6-0.6,0.9
		c-0.1,0.4-0.2,0.8-0.2,1.2s0.1,0.8,0.2,1.2c0.1,0.4,0.3,0.7,0.6,1c0.3,0.3,0.6,0.5,0.9,0.6s0.7,0.2,1.2,0.2s0.8-0.1,1.1-0.2
		c0.3-0.2,0.6-0.4,0.9-0.6c0.2-0.3,0.4-0.6,0.6-0.9C56.3,17.6,56.3,17.2,56.3,16.8z"/>
	<path class="st4" d="M66.5,17.4c0,0.6-0.1,1.2-0.3,1.6c-0.2,0.5-0.4,0.9-0.7,1.2c-0.3,0.3-0.7,0.6-1.1,0.7
		c-0.4,0.2-0.9,0.2-1.5,0.2c-0.5,0-1-0.1-1.5-0.2c-0.4-0.2-0.8-0.4-1.1-0.7c-0.3-0.3-0.6-0.7-0.7-1.2c-0.2-0.5-0.3-1-0.3-1.6v-4.8
		h1.5v4.8c0,0.8,0.2,1.4,0.6,1.8s0.9,0.6,1.6,0.6c0.7,0,1.2-0.2,1.6-0.6c0.4-0.4,0.6-1,0.6-1.8v-4.8h1.5V17.4z"/>
	<path class="st4" d="M73.7,21l-2.1-2.9h-1.9V21h-1.5v-8.4H72c0.5,0,0.9,0.1,1.3,0.2s0.7,0.3,1,0.5c0.3,0.2,0.5,0.5,0.6,0.8
		s0.2,0.7,0.2,1.1c0,0.7-0.2,1.3-0.6,1.7c-0.4,0.4-0.9,0.7-1.4,0.9l2.3,3.2H73.7z M73.7,15.4c0-0.5-0.2-0.8-0.5-1.1
		c-0.3-0.2-0.7-0.4-1.3-0.4h-2.2v2.8h2.2c0.5,0,1-0.1,1.3-0.4C73.5,16.1,73.7,15.8,73.7,15.4z"/>
	<path class="st4" d="M82.6,12.6h1.5V21h-1.2l-4.6-6v6h-1.5v-8.4h1.4l4.5,5.8V12.6z"/>
	<path class="st4" d="M94,21h-1.6l-0.9-2h-4l-0.9,2h-1.5l3.7-8.5h1.4L94,21z M89.6,14.3l-1.4,3.4h2.9L89.6,14.3z"/>
	<path class="st4" d="M95.2,12.6h1.5v7.1h4.4V21h-5.9V12.6z"/>
	<path class="st4" d="M114.2,16.8c0,0.6-0.1,1.2-0.3,1.7c-0.2,0.5-0.5,1-0.9,1.4c-0.4,0.4-0.9,0.7-1.4,0.9c-0.5,0.2-1.1,0.3-1.8,0.3
		s-1.2-0.1-1.8-0.3c-0.5-0.2-1-0.5-1.4-0.9c-0.4-0.4-0.7-0.9-0.9-1.4c-0.2-0.5-0.3-1.1-0.3-1.7c0-0.6,0.1-1.2,0.3-1.7
		c0.2-0.5,0.5-1,0.9-1.4c0.4-0.4,0.9-0.7,1.4-0.9c0.5-0.2,1.1-0.3,1.8-0.3s1.2,0.1,1.8,0.3c0.5,0.2,1,0.5,1.4,0.9
		c0.4,0.4,0.7,0.9,0.9,1.4C114.1,15.7,114.2,16.2,114.2,16.8z M112.7,16.8c0-0.4-0.1-0.8-0.2-1.2s-0.3-0.7-0.6-1
		c-0.3-0.3-0.6-0.5-0.9-0.6c-0.4-0.2-0.7-0.2-1.2-0.2s-0.8,0.1-1.1,0.2c-0.3,0.2-0.6,0.4-0.9,0.6c-0.2,0.3-0.4,0.6-0.6,0.9
		c-0.1,0.4-0.2,0.8-0.2,1.2s0.1,0.8,0.2,1.2c0.1,0.4,0.3,0.7,0.6,1c0.3,0.3,0.6,0.5,0.9,0.6s0.7,0.2,1.2,0.2s0.8-0.1,1.1-0.2
		c0.3-0.2,0.6-0.4,0.9-0.6c0.2-0.3,0.4-0.6,0.6-0.9C112.6,17.6,112.7,17.2,112.7,16.8z"/>
	<path class="st4" d="M122,14h-4.8v2.3h4.2v1.3h-4.2V21h-1.5v-8.4h6.2V14z"/>
	<path class="st4" d="M134.1,19.7c-0.2,0.2-0.4,0.4-0.7,0.6c-0.2,0.2-0.5,0.3-0.8,0.5c-0.3,0.1-0.6,0.2-0.9,0.3
		c-0.3,0.1-0.7,0.1-1.1,0.1c-0.6,0-1.2-0.1-1.7-0.3c-0.5-0.2-1-0.5-1.4-0.9c-0.4-0.4-0.7-0.8-0.9-1.4c-0.2-0.5-0.3-1.1-0.3-1.7
		c0-0.6,0.1-1.2,0.3-1.7s0.5-1,0.9-1.4c0.4-0.4,0.8-0.7,1.4-0.9c0.5-0.2,1.1-0.3,1.7-0.3c0.4,0,0.7,0,1,0.1c0.3,0.1,0.6,0.2,0.9,0.3
		s0.5,0.3,0.7,0.4s0.4,0.3,0.6,0.5l-0.9,1.1c-0.3-0.3-0.7-0.6-1.1-0.8c-0.4-0.2-0.8-0.3-1.3-0.3c-0.4,0-0.8,0.1-1.1,0.2
		c-0.3,0.2-0.6,0.4-0.9,0.6c-0.2,0.3-0.4,0.6-0.6,0.9c-0.1,0.4-0.2,0.7-0.2,1.2s0.1,0.8,0.2,1.2c0.1,0.4,0.3,0.7,0.6,1
		c0.2,0.3,0.5,0.5,0.9,0.6c0.3,0.2,0.7,0.2,1.1,0.2c0.5,0,1-0.1,1.3-0.3c0.4-0.2,0.7-0.5,1.1-0.8L134.1,19.7z"/>
	<path class="st4" d="M140.8,21l-2.1-2.9h-1.9V21h-1.5v-8.4h3.7c0.5,0,0.9,0.1,1.3,0.2c0.4,0.1,0.7,0.3,1,0.5
		c0.3,0.2,0.5,0.5,0.6,0.8s0.2,0.7,0.2,1.1c0,0.7-0.2,1.3-0.6,1.7c-0.4,0.4-0.9,0.7-1.4,0.9l2.3,3.2H140.8z M140.8,15.4
		c0-0.5-0.2-0.8-0.5-1.1c-0.3-0.2-0.7-0.4-1.3-0.4h-2.2v2.8h2.2c0.5,0,1-0.1,1.3-0.4C140.6,16.1,140.8,15.8,140.8,15.4z"/>
	<path class="st4" d="M145.4,12.6V21h-1.5v-8.4H145.4z"/>
	<path class="st4" d="M151,21h-1.5v-7h-2.7v-1.4h6.8V14H151V21z"/>
	<path class="st4" d="M156.5,12.6V21h-1.5v-8.4H156.5z"/>
	<path class="st4" d="M165.9,19.7c-0.2,0.2-0.4,0.4-0.7,0.6c-0.2,0.2-0.5,0.3-0.8,0.5s-0.6,0.2-0.9,0.3c-0.3,0.1-0.7,0.1-1.1,0.1
		c-0.6,0-1.2-0.1-1.7-0.3c-0.5-0.2-1-0.5-1.4-0.9c-0.4-0.4-0.7-0.8-0.9-1.4c-0.2-0.5-0.3-1.1-0.3-1.7c0-0.6,0.1-1.2,0.3-1.7
		s0.5-1,0.9-1.4c0.4-0.4,0.8-0.7,1.4-0.9c0.5-0.2,1.1-0.3,1.7-0.3c0.4,0,0.7,0,1.1,0.1c0.3,0.1,0.6,0.2,0.9,0.3
		c0.3,0.1,0.5,0.3,0.7,0.4s0.4,0.3,0.6,0.5l-0.9,1.1c-0.3-0.3-0.7-0.6-1.1-0.8c-0.4-0.2-0.8-0.3-1.3-0.3c-0.4,0-0.8,0.1-1.1,0.2
		c-0.3,0.2-0.6,0.4-0.9,0.6c-0.2,0.3-0.4,0.6-0.6,0.9c-0.1,0.4-0.2,0.7-0.2,1.2s0.1,0.8,0.2,1.2c0.1,0.4,0.3,0.7,0.6,1
		c0.2,0.3,0.5,0.5,0.9,0.6c0.3,0.2,0.7,0.2,1.1,0.2c0.5,0,1-0.1,1.3-0.3c0.4-0.2,0.7-0.5,1.1-0.8L165.9,19.7z"/>
	<path class="st4" d="M175.2,21h-1.6l-0.9-2h-4l-0.9,2h-1.5l3.7-8.5h1.4L175.2,21z M170.8,14.3l-1.4,3.4h2.9L170.8,14.3z"/>
	<path class="st4" d="M176.4,12.6h1.5v7.1h4.4V21h-5.9V12.6z"/>
	<path class="st4" d="M188.5,12.6V21h-1.5v-8.4H188.5z"/>
	<path class="st4" d="M196.4,12.6h1.5V21h-1.2l-4.6-6v6h-1.5v-8.4h1.4l4.5,5.8V12.6z"/>
	<path class="st4" d="M207.1,19.7c-0.2,0.2-0.4,0.4-0.7,0.6c-0.2,0.2-0.5,0.3-0.8,0.5c-0.3,0.1-0.6,0.2-0.9,0.3
		c-0.3,0.1-0.7,0.1-1.1,0.1c-0.6,0-1.2-0.1-1.7-0.3c-0.5-0.2-1-0.5-1.4-0.9c-0.4-0.4-0.7-0.8-0.9-1.4c-0.2-0.5-0.3-1.1-0.3-1.7
		c0-0.6,0.1-1.2,0.3-1.7s0.5-1,0.9-1.4c0.4-0.4,0.8-0.7,1.4-0.9c0.5-0.2,1.1-0.3,1.7-0.3c0.4,0,0.7,0,1,0.1c0.3,0.1,0.6,0.2,0.9,0.3
		c0.3,0.1,0.5,0.3,0.7,0.4s0.4,0.3,0.6,0.5l-0.9,1.1c-0.3-0.3-0.7-0.6-1.1-0.8c-0.4-0.2-0.8-0.3-1.3-0.3c-0.4,0-0.8,0.1-1.1,0.2
		s-0.6,0.4-0.9,0.6c-0.2,0.3-0.4,0.6-0.6,0.9c-0.1,0.4-0.2,0.7-0.2,1.2s0.1,0.8,0.2,1.2c0.1,0.4,0.3,0.7,0.6,1
		c0.2,0.3,0.5,0.5,0.9,0.6c0.3,0.2,0.7,0.2,1.1,0.2c0.5,0,1-0.1,1.3-0.3s0.7-0.5,1.1-0.8L207.1,19.7z"/>
	<path class="st4" d="M210,12.6V21h-1.5v-8.4H210z"/>
	<path class="st4" d="M219.6,16.8c0,0.6-0.1,1.1-0.3,1.7c-0.2,0.5-0.5,1-0.9,1.3s-0.9,0.7-1.4,0.9s-1.1,0.3-1.8,0.3H212v-8.4h3.1
		c0.7,0,1.3,0.1,1.8,0.3s1,0.5,1.4,0.9s0.7,0.8,0.9,1.3C219.5,15.7,219.6,16.2,219.6,16.8z M218.1,16.8c0-0.4-0.1-0.8-0.2-1.2
		c-0.1-0.3-0.3-0.7-0.6-0.9c-0.3-0.3-0.6-0.5-0.9-0.6c-0.4-0.1-0.8-0.2-1.2-0.2h-1.7v5.7h1.7c0.4,0,0.8-0.1,1.2-0.2
		c0.4-0.1,0.7-0.3,0.9-0.6c0.3-0.3,0.4-0.6,0.6-0.9C218,17.6,218.1,17.3,218.1,16.8z"/>
	<path class="st4" d="M227.4,14h-4.8v2.2h4.2v1.3h-4.2v2.2h4.8V21h-6.3v-8.4h6.2V14z"/>
	<path class="st4" d="M234.8,12.6h1.5V21h-1.2l-4.6-6v6H229v-8.4h1.4l4.5,5.8V12.6z"/>
	<path class="st4" d="M241.8,21h-1.5v-7h-2.7v-1.4h6.8V14h-2.7V21z"/>
	<path class="st4" d="M247,14.8c0,0.2,0,0.3,0.1,0.4c0.1,0.1,0.2,0.2,0.3,0.3c0.1,0.1,0.4,0.2,0.6,0.3c0.3,0.1,0.6,0.2,1,0.3
		c0.4,0.1,0.8,0.2,1.2,0.4s0.6,0.3,0.8,0.5s0.4,0.4,0.5,0.7c0.1,0.3,0.2,0.6,0.2,0.9c0,0.4-0.1,0.7-0.2,1.1
		c-0.1,0.3-0.4,0.6-0.6,0.8s-0.6,0.4-0.9,0.5c-0.4,0.1-0.8,0.2-1.2,0.2c-0.6,0-1.3-0.1-1.9-0.3c-0.6-0.2-1.1-0.6-1.6-1l0.9-1.1
		c0.4,0.4,0.8,0.6,1.2,0.8c0.4,0.2,0.9,0.3,1.4,0.3c0.5,0,0.8-0.1,1.1-0.3c0.3-0.2,0.4-0.5,0.4-0.8c0-0.2,0-0.3-0.1-0.4
		c-0.1-0.1-0.1-0.2-0.3-0.3c-0.1-0.1-0.3-0.2-0.6-0.3c-0.2-0.1-0.6-0.2-1-0.3c-0.4-0.1-0.8-0.2-1.2-0.4s-0.6-0.3-0.9-0.5
		c-0.2-0.2-0.4-0.4-0.5-0.7c-0.1-0.3-0.2-0.6-0.2-1c0-0.4,0.1-0.7,0.2-1c0.1-0.3,0.3-0.6,0.6-0.8c0.2-0.2,0.6-0.4,0.9-0.5
		c0.4-0.1,0.7-0.2,1.2-0.2c0.6,0,1.2,0.1,1.7,0.3s1,0.4,1.4,0.8l-0.8,1.1c-0.8-0.6-1.5-0.9-2.3-0.9c-0.4,0-0.8,0.1-1,0.3
		C247.1,14.3,247,14.5,247,14.8z"/>
</g>
</svg>
