<?xml version="1.0" encoding="utf-8"?>
<!-- Generator: Adobe Illustrator 19.2.0, SVG Export Plug-In . SVG Version: 6.00 Build 0)  -->
<svg version="1.1" id="Layer_1" xmlns="http://www.w3.org/2000/svg" xmlns:xlink="http://www.w3.org/1999/xlink" x="0px" y="0px"
	 viewBox="0 0 73.5 75" style="enable-background:new 0 0 73.5 75;" xml:space="preserve">
<style type="text/css">
	.st0{clip-path:url(#SVGID_2_);fill:none;stroke:#FFFFFF;stroke-width:2.043;}
</style>
<g>
	<defs>
		<rect id="SVGID_1_" x="19.2" y="15.5" width="35" height="44.1"/>
	</defs>
	<clipPath id="SVGID_2_">
		<use xlink:href="#SVGID_1_"  style="overflow:visible;"/>
	</clipPath>
	<path class="st0" d="M36.7,22.5c0,0-12.1,0-12.1,14.9c0,0,0.9,6.6-4,11c0,0,2,3.9,16.2,3.9s16.2-4.4,16.2-4.4s-3.5-1.5-3.5-10.7
		C49.4,37.2,48.3,22.5,36.7,22.5z"/>
	<path class="st0" d="M32.8,17.7c0,0,3.3-2.8,7.9,0"/>
	<path class="st0" d="M30.4,52.3c0,0,0.6,6.3,6.4,6.3c0,0,5.9,0.2,5.9-6.4"/>
</g>
</svg>
