<?xml version="1.0" encoding="utf-8"?>
<!-- Generator: Adobe Illustrator 19.2.1, SVG Export Plug-In . SVG Version: 6.00 Build 0)  -->
<svg version="1.1" id="Layer_1" xmlns="http://www.w3.org/2000/svg" xmlns:xlink="http://www.w3.org/1999/xlink" x="0px" y="0px"
	 viewBox="0 0 182.6 182.1" style="enable-background:new 0 0 182.6 182.1;" xml:space="preserve">
<style type="text/css">
	.st0{fill:#282828;}
</style>
<g>
	<path class="st0" d="M104.4,131.5c-0.2,0.1-0.3,0.2-0.5,0.2c-4,2.3-8.1,4.2-12.5,5.7c-4.1,1.4-8.2,2.4-12.5,3
		c-4.2,0.6-8.5,0.8-12.7,0.7c-5.5-0.2-11-1-16.3-2.6c-4.4-1.3-8.6-2.9-12.7-5c-6.5-3.4-12.4-7.7-17.5-12.9
		c-4.7-4.8-8.7-10.2-11.8-16.3c-2.8-5.3-4.8-10.8-6.1-16.6c-0.7-2.9-1.1-5.9-1.4-8.9c-0.4-4-0.4-8-0.1-12C0.7,61,1.8,55.4,3.7,49.9
		c1-3,2.2-5.9,3.6-8.7c1.8-3.6,3.9-7,6.3-10.3c2-2.7,4.1-5.2,6.5-7.5c5-5,10.6-9.2,16.9-12.4c4.4-2.3,9-4.1,13.9-5.4
		c2.9-0.8,5.7-1.3,8.7-1.8c2.4-0.3,4.8-0.5,7.2-0.6c2.5-0.1,4.9,0,7.4,0.2c4.3,0.3,8.5,1,12.7,2.1c2.4,0.6,4.8,1.4,7.1,2.3
		c3.1,1.2,6.1,2.6,9,4.3c4.8,2.7,9.3,6,13.3,9.8c4.5,4.2,8.3,8.9,11.5,14.2c3.3,5.4,5.8,11.1,7.5,17.1c0.7,2.6,1.3,5.2,1.7,7.8
		c0.4,2.4,0.6,4.8,0.8,7.3c0.1,1.9,0.2,3.9,0.1,5.8c-0.2,5-0.8,9.9-2,14.7c-0.8,3.2-1.8,6.3-3,9.3c-1.3,3.2-2.9,6.4-4.6,9.3
		c-0.1,0.2-0.3,0.5-0.4,0.7c0.1,0.2,0.2,0.4,0.4,0.5c2.1,2.1,4.3,4.1,6.4,6.2c1.7,1.7,3.5,3.4,5.2,5c2.3,2.2,4.6,4.4,6.9,6.6
		c1.7,1.7,3.5,3.4,5.2,5c2.3,2.2,4.6,4.5,6.9,6.7c1.8,1.7,3.5,3.4,5.3,5.2c2.2,2.1,4.4,4.3,6.6,6.4c1.4,1.4,2.8,2.7,4.2,4.1
		c2.3,2.4,3.7,5.2,4.2,8.4c1.2,7.1-2,13.8-7.9,17.3c-3.5,2.1-7.3,2.7-11.4,1.9c-3-0.6-5.7-2-7.9-4.1c-3.2-3.1-6.3-6.1-9.5-9.2
		c-2.4-2.4-4.9-4.7-7.3-7.1c-1.6-1.6-3.2-3.1-4.8-4.7c-2.5-2.4-5-4.8-7.4-7.2c-1.5-1.5-3-2.9-4.5-4.4c-2-2-4-3.9-6-5.9
		c-2-1.9-4-3.9-5.9-5.8c-0.6-0.5-1.1-1.1-1.7-1.6C104.7,131.7,104.5,131.6,104.4,131.5z M110.3,71.6c0-0.7-0.1-2.1-0.2-3.4
		c-0.2-2-0.5-4-1-6c-0.9-3.7-2.4-7.3-4.3-10.6c-2.3-4-5.2-7.5-8.7-10.5c-3.3-2.9-7-5.2-11.1-7c-3.4-1.4-6.9-2.4-10.6-2.9
		c-2.3-0.3-4.6-0.4-6.9-0.3c-3.4,0.1-6.7,0.7-10,1.6c-5.4,1.6-10.2,4.1-14.5,7.7c-3.4,2.7-6.2,5.9-8.6,9.6
		c-2.5,3.7-4.2,7.8-5.4,12.1c-0.6,2.3-1,4.7-1.2,7c-0.2,3-0.2,6.1,0.3,9.1c0.4,2.7,1,5.3,1.9,7.8c1.3,3.7,3.1,7.1,5.4,10.3
		c3.1,4.2,6.8,7.8,11.1,10.6c3.9,2.6,8.2,4.4,12.8,5.6c3.2,0.8,6.4,1.2,9.7,1.2c4.5,0,8.9-0.8,13.1-2.2c5.3-1.8,10-4.6,14.2-8.4
		c4.3-3.9,7.7-8.4,10.1-13.6C109,83.9,110.2,78.2,110.3,71.6z"/>
</g>
</svg>
